<svg xmlns="http://www.w3.org/2000/svg" width="201.091" height="49" viewBox="0 0 201.091 49"><path d="M27.306,42.227c6.2,0,8.048.411,10.136,2.285,1.968,1.934,2.742,4.336,2.742,8.381V70.765H33.447V53.419c.119-4.336-1.431-5.977-5.783-5.977H23.251V70.765H16.515V47.443H6.737V70.765H0V42.227Z" transform="translate(0 -31.495)" fill="#0614ba"/><path d="M428.482,16.038H422.46c-5.544,0-8.346,2.981-8.346,9,0,6.379,2.563,9.42,7.869,9.42h6.5Zm0-16.038h6.738V39.767H421.983c-5.365,0-8.048-.774-10.492-2.921-2.743-2.5-4.294-6.5-4.294-11.388,0-5.127,1.729-9.42,4.771-11.985,2.205-1.847,5.306-2.742,9.48-2.742h7.035Z" transform="translate(-304.919)" fill="#0614ba"/><path d="M556.094,39.767h-6.737V10.732h6.737ZM549.357,0h6.737V6.8h-6.737Z" transform="translate(-411.195)" fill="#0614ba"/><path d="M596.267,16.039V10.732h5.187V9.242C601.514,2.743,604.138,0,610.4,0h6.439V5.307h-4.651c-2.981-.06-4.053.954-3.995,3.935v1.49H616.6v5.306h-8.407V39.768h-6.737V16.039Z" transform="translate(-446.427 -0.001)" fill="#0614ba"/><path d="M716.776,42.227h6.737V68.4c-.06,9.6-3.219,12.819-12.341,12.58H697.7V75.674h13.3c4.77.06,5.723-.6,5.783-4.412h-7.632c-4.471.119-7.215-.895-9.421-3.4-1.669-2.205-2.087-4.054-2.027-9.539v-16.1h6.737V58.8c0,5.6,1.073,7.095,5.366,7.155h6.976Z" transform="translate(-522.422 -31.993)" fill="#0614ba"/><path d="M276.848,52.425a14.127,14.127,0,0,1,3.876-6.54,14.582,14.582,0,0,1,6.692-3.85,15.1,15.1,0,0,1,3.678-.474v6.216a7.591,7.591,0,0,0-2.206.227,8.261,8.261,0,0,0-3.771,2.2,7.952,7.952,0,0,0-2.2,3.668,7.249,7.249,0,0,0,.1,4.095,9.066,9.066,0,0,0,2.383,3.77,8.928,8.928,0,0,0,3.792,2.3,7.736,7.736,0,0,0,4.124.061,8.152,8.152,0,0,0,3.731-2.16,7.911,7.911,0,0,0,2.218-3.688,7.621,7.621,0,0,0,.229-2.195h6.39a14.209,14.209,0,0,1-4.443,10.2,14.478,14.478,0,0,1-6.653,3.81,15.1,15.1,0,0,1-7.461.041,14.416,14.416,0,0,1-10.486-17.685" transform="translate(-206.953 -30.998)" fill="#0614ba"/><rect width="6.413" height="6.413" transform="translate(92.381 10.44)" fill="#00d3c6"/><path d="M211.133,59.693a14.126,14.126,0,0,1-3.876,6.54,14.586,14.586,0,0,1-6.692,3.851,15.134,15.134,0,0,1-3.678.474V64.341a7.567,7.567,0,0,0,2.206-.228,8.253,8.253,0,0,0,3.771-2.2,7.949,7.949,0,0,0,2.2-3.668,7.253,7.253,0,0,0-.1-4.095,9.069,9.069,0,0,0-2.383-3.77,8.921,8.921,0,0,0-3.792-2.3,7.732,7.732,0,0,0-4.123-.061,8.148,8.148,0,0,0-3.731,2.161,7.911,7.911,0,0,0-2.218,3.687,7.632,7.632,0,0,0-.229,2.195h-6.39a14.208,14.208,0,0,1,4.443-10.2,14.475,14.475,0,0,1,6.653-3.81,15.09,15.09,0,0,1,7.46-.04,14.415,14.415,0,0,1,10.486,17.684" transform="translate(-136.359 -30.998)" fill="#0614ba"/><rect width="6.413" height="6.413" transform="translate(45.796 33.255)" fill="#00d3c6"/></svg>
